<?xml version="1.0" encoding="utf-8"?>
<!-- Generator: Adobe Illustrator 26.0.2, SVG Export Plug-In . SVG Version: 6.00 Build 0)  -->
<svg version="1.1" id="Layer_1" xmlns="http://www.w3.org/2000/svg" xmlns:xlink="http://www.w3.org/1999/xlink" x="0px" y="0px"
	 viewBox="0 0 100 100" style="enable-background:new 0 0 100 100;" xml:space="preserve">
<style type="text/css">
	.st0{fill:#F72323;}
</style>
<path class="st0" d="M78.2,19.5c-0.5-1.2-1.2-2.3-2.2-3.2c-1.8-1.8-4.3-2.9-7.1-2.9H31c-2.8,0-5.3,1.1-7.1,2.9
	c-0.9,0.9-1.7,2-2.2,3.2l-5.7,13.8h67.8L78.2,19.5z"/>
<path class="st0" d="M90,50c0-5.5-4.5-10-10-10H20c-5.5,0-10,4.5-10,10l0,0h0v23.3h6.7v10c0,1.8,1.5,3.3,3.3,3.3h6.7
	c1.8,0,3.3-1.5,3.3-3.3v-10h40v10c0,1.8,1.5,3.3,3.3,3.3H80c1.8,0,3.3-1.5,3.3-3.3v-10H90V50L90,50L90,50z M23.3,60.8
	c-2.3,0-4.2-1.9-4.2-4.2c0-2.3,1.9-4.2,4.2-4.2c2.3,0,4.2,1.9,4.2,4.2C27.5,59,25.6,60.8,23.3,60.8z M66.7,60H33.3v-6.7h33.3V60z
	 M76.7,60.8c-2.3,0-4.2-1.9-4.2-4.2c0-2.3,1.9-4.2,4.2-4.2c2.3,0,4.2,1.9,4.2,4.2C80.8,59,79,60.8,76.7,60.8z"/>
</svg>
