<svg xmlns="http://www.w3.org/2000/svg" viewBox="0 0 32 32"><title>Artboard-36</title><g id="Files"><path d="M28,10V28a1.0029,1.0029,0,0,1-1,1H12a1.0029,1.0029,0,0,1-1-1V22a1.0029,1.0029,0,0,1,1-1h7V10a1.0029,1.0029,0,0,1,1-1h7A1.0029,1.0029,0,0,1,28,10Z" style="fill:#4294ff"/><path d="M28,25.53V28a1.0029,1.0029,0,0,1-1,1H12a1.0029,1.0029,0,0,1-1-1V22a1.0029,1.0029,0,0,1,1-1h3.85A15.11,15.11,0,0,0,28,25.53Z" style="fill:#2965ed"/><path d="M20,9a1.0029,1.0029,0,0,0-1,1V21H12a1.0029,1.0029,0,0,0-1,1v2h9a2.0059,2.0059,0,0,0,2-2V9Z" style="fill:#2965ed"/><path d="M19.93,24H11V22a1.0029,1.0029,0,0,1,1-1h3.85A14.3307,14.3307,0,0,0,19.93,24Z" style="fill:#2045ce"/><rect x="4" y="3" width="17" height="20" rx="1" ry="1" style="fill:#e6ecff"/><path d="M18.21,23H5a1.0029,1.0029,0,0,1-1-1V4A1.0029,1.0029,0,0,1,5,3H9.14C9.61,8.54,11.4,18.37,18.21,23Z" style="fill:#b7c6e2"/><path d="M16,10H9A1,1,0,0,1,9,8h7a1,1,0,0,1,0,2Z" style="fill:#4294ff"/><path d="M16,14H9a1,1,0,0,1,0-2h7a1,1,0,0,1,0,2Z" style="fill:#4294ff"/><path d="M16,18H9a1,1,0,0,1,0-2h7a1,1,0,0,1,0,2Z" style="fill:#4294ff"/><path d="M10.28,10H9A1,1,0,0,1,9,8h.83C9.96,8.65,10.11,9.32,10.28,10Z" style="fill:#2965ed"/><path d="M11.55,14H9a1,1,0,0,1,0-2h1.84C11.05,12.67,11.28,13.33,11.55,14Z" style="fill:#2965ed"/><path d="M13.53,18H9a1,1,0,0,1,0-2h3.42A20.4213,20.4213,0,0,0,13.53,18Z" style="fill:#2965ed"/></g></svg>