<svg xmlns="http://www.w3.org/2000/svg" xmlns:xlink="http://www.w3.org/1999/xlink" viewBox="0 0 54 42"><defs><style>.cls-1{fill:#b4cde1;}.cls-2{fill:url(#linear-gradient);}.cls-3{fill:#4795ea;}.cls-4{fill:url(#linear-gradient-2);}.cls-5{fill:url(#linear-gradient-3);}.cls-6{fill:#9db8d3;}</style><linearGradient id="linear-gradient" x1="29.5" y1="42" x2="29.5" gradientUnits="userSpaceOnUse"><stop offset="0" stop-color="#d3e6f5"/><stop offset="1" stop-color="#f0f7fc"/></linearGradient><linearGradient id="linear-gradient-2" x1="45" y1="31" x2="45" y2="10" gradientUnits="userSpaceOnUse"><stop offset="0" stop-color="#54a5ff"/><stop offset="1" stop-color="#8ad3fe"/></linearGradient><linearGradient id="linear-gradient-3" x1="21" y1="22.5" x2="35" y2="22.5" gradientUnits="userSpaceOnUse"><stop offset="0" stop-color="#fe9661"/><stop offset="1" stop-color="#ffb369"/></linearGradient></defs><g id="Layer_2" data-name="Layer 2"><g id="Approve_Stamp_document" data-name="Approve Stamp document"><path class="cls-1" d="M39,42H5a5,5,0,0,1-5-5V35H34v2A5,5,0,0,0,39,42Z"/><path class="cls-1" d="M54,5V7H44V5A5,5,0,0,1,54,5Z"/><path class="cls-2" d="M15,0a5,5,0,0,0-5,5V35H34v2a5,5,0,0,0,10,0V34H38V31H37v-.23A3.76,3.76,0,0,1,40.77,27,2.23,2.23,0,0,0,43,24.77V23.58a23.11,23.11,0,0,0-1.75-8.18A4.08,4.08,0,0,1,41,14a4,4,0,0,1,3-3.87V5a5,5,0,0,1,5-5ZM38,12H16a1,1,0,0,1,0-2H38a1,1,0,0,1,0,2Zm0-5H16a1,1,0,0,1,0-2H38a1,1,0,0,1,0,2Z"/><rect class="cls-3" x="38" y="31" width="14" height="3"/><path class="cls-4" d="M53,30.77V31H37v-.23A3.76,3.76,0,0,1,40.77,27,2.23,2.23,0,0,0,43,24.77V23.58a23.11,23.11,0,0,0-1.75-8.18A4.08,4.08,0,0,1,41,14a4,4,0,0,1,3-3.87,4,4,0,0,1,2,0A4,4,0,0,1,48.88,13a4,4,0,0,1-.09,2.27A28.23,28.23,0,0,0,47,24.33v.44A2.23,2.23,0,0,0,49.23,27,3.77,3.77,0,0,1,53,30.77Z"/><path class="cls-1" d="M25,32a8,8,0,0,1,0-16A7.83,7.83,0,0,1,30,17.73a1,1,0,0,1-1.26,1.56A5.82,5.82,0,0,0,25,18a6,6,0,1,0,6,6,1,1,0,0,1,.83-1.16,1,1,0,0,1,1.15.82A1.94,1.94,0,0,1,33,24,8,8,0,0,1,25,32Z"/><path class="cls-5" d="M25,28a1,1,0,0,1-.71-.29l-3-3a1,1,0,0,1,1.42-1.42L25,25.59l8.29-8.3a1,1,0,0,1,1.42,1.42l-9,9A1,1,0,0,1,25,28Z"/><path class="cls-6" d="M38,7H16a1,1,0,0,1,0-2H38a1,1,0,0,1,0,2Z"/><path class="cls-6" d="M38,12H16a1,1,0,0,1,0-2H38a1,1,0,0,1,0,2Z"/></g></g></svg>