<svg xmlns="http://www.w3.org/2000/svg" xmlns:xlink="http://www.w3.org/1999/xlink" viewBox="0 0 48 48"><defs><style>.cls-1{fill:url(#linear-gradient);}.cls-2{fill:#8ad3fe;}.cls-3{fill:url(#linear-gradient-2);}.cls-4{fill:url(#linear-gradient-3);}.cls-5{fill:url(#linear-gradient-4);}.cls-6{fill:url(#linear-gradient-5);}.cls-7{fill:url(#linear-gradient-6);}.cls-8{fill:url(#linear-gradient-7);}.cls-9{fill:url(#linear-gradient-8);}.cls-10{fill:url(#linear-gradient-9);}.cls-11{fill:url(#linear-gradient-10);}.cls-12{fill:url(#linear-gradient-11);}.cls-13{fill:#eb7f58;}.cls-14{fill:url(#linear-gradient-12);}</style><linearGradient id="linear-gradient" x1="24" y1="15" x2="24" gradientUnits="userSpaceOnUse"><stop offset="0" stop-color="#54a5ff"/><stop offset="1" stop-color="#8ad3fe"/></linearGradient><linearGradient id="linear-gradient-2" x1="13" y1="46" x2="13" y2="41" xlink:href="#linear-gradient"/><linearGradient id="linear-gradient-3" x1="14" y1="41" x2="14" y2="37" xlink:href="#linear-gradient"/><linearGradient id="linear-gradient-4" x1="4" y1="21" x2="14" y2="21" gradientUnits="userSpaceOnUse"><stop offset="0" stop-color="#d3e6f5"/><stop offset="1" stop-color="#f0f7fc"/></linearGradient><linearGradient id="linear-gradient-5" y1="35" y2="35" xlink:href="#linear-gradient-4"/><linearGradient id="linear-gradient-6" x1="9" y1="33" x2="9" y2="23" xlink:href="#linear-gradient-4"/><linearGradient id="linear-gradient-7" x1="34" x2="44" xlink:href="#linear-gradient-4"/><linearGradient id="linear-gradient-8" x1="34" y1="35" x2="44" y2="35" xlink:href="#linear-gradient-4"/><linearGradient id="linear-gradient-9" x1="39" y1="33" x2="39" y2="23" xlink:href="#linear-gradient-4"/><linearGradient id="linear-gradient-10" x1="24" y1="12" x2="24" y2="4" gradientUnits="userSpaceOnUse"><stop offset="0" stop-color="#fe9661"/><stop offset="1" stop-color="#ffb369"/></linearGradient><linearGradient id="linear-gradient-11" x1="37" y1="48" x2="37" y2="34" xlink:href="#linear-gradient-10"/><linearGradient id="linear-gradient-12" y1="33" y2="22" xlink:href="#linear-gradient-10"/></defs><g id="Layer_2" data-name="Layer 2"><g id="withdraw_money" data-name="withdraw money"><polygon class="cls-1" points="48 15 0 15 0 9 24 0 48 9 48 15"/><rect class="cls-2" x="2" y="15" width="44" height="4"/><rect class="cls-3" y="41" width="26" height="5"/><rect class="cls-4" x="2" y="37" width="24" height="4"/><path class="cls-5" d="M4,19H14a0,0,0,0,1,0,0v2a2,2,0,0,1-2,2H6a2,2,0,0,1-2-2V19A0,0,0,0,1,4,19Z"/><path class="cls-6" d="M6,33h6a2,2,0,0,1,2,2v2a0,0,0,0,1,0,0H4a0,0,0,0,1,0,0V35A2,2,0,0,1,6,33Z"/><rect class="cls-7" x="6" y="23" width="6" height="10"/><path class="cls-8" d="M34,19H44a0,0,0,0,1,0,0v2a2,2,0,0,1-2,2H36a2,2,0,0,1-2-2V19A0,0,0,0,1,34,19Z"/><path class="cls-9" d="M36,33h6a2,2,0,0,1,2,2v2a0,0,0,0,1,0,0H34a0,0,0,0,1,0,0V35A2,2,0,0,1,36,33Z"/><rect class="cls-10" x="36" y="23" width="6" height="10"/><circle class="cls-11" cx="24" cy="8" r="4"/><rect class="cls-12" x="26" y="34" width="22" height="14" rx="2"/><circle class="cls-13" cx="37" cy="41" r="3"/><circle class="cls-13" cx="44" cy="41" r="1"/><circle class="cls-13" cx="30" cy="41" r="1"/><path class="cls-14" d="M27.71,28.29a1,1,0,0,0-1.42,0L25,29.59V23a1,1,0,0,0-2,0v6.59l-1.29-1.3a1,1,0,0,0-1.42,1.42l3,3a1,1,0,0,0,.33.21.94.94,0,0,0,.76,0,1,1,0,0,0,.33-.21l3-3A1,1,0,0,0,27.71,28.29Z"/></g></g></svg>