<svg xmlns="http://www.w3.org/2000/svg" xmlns:xlink="http://www.w3.org/1999/xlink" viewBox="0 0 48 49"><defs><style>.cls-1{fill:url(#linear-gradient);}.cls-2{fill:url(#linear-gradient-2);}.cls-3{fill:url(#linear-gradient-3);}.cls-4{fill:#eb7f58;}.cls-5{fill:#4795ea;}.cls-6{fill:#fff;}</style><linearGradient id="linear-gradient" x1="24" y1="16" x2="24" gradientUnits="userSpaceOnUse"><stop offset="0" stop-color="#d3e6f5"/><stop offset="1" stop-color="#f0f7fc"/></linearGradient><linearGradient id="linear-gradient-2" x1="24" y1="33" x2="24" y2="16" gradientUnits="userSpaceOnUse"><stop offset="0" stop-color="#54a5ff"/><stop offset="1" stop-color="#8ad3fe"/></linearGradient><linearGradient id="linear-gradient-3" x1="24" y1="37" x2="24" y2="33" gradientUnits="userSpaceOnUse"><stop offset="0" stop-color="#fe9661"/><stop offset="1" stop-color="#ffb369"/></linearGradient></defs><g id="Layer_2" data-name="Layer 2"><g id="teller"><rect class="cls-1" x="17" width="14" height="16" rx="7"/><path class="cls-2" d="M35.06,24.76a11.36,11.36,0,0,0-22.12,0L11,33H37Zm-9.17-5.31L25,21.24V31a1,1,0,0,1-2,0V21.24l-.89-1.79A1,1,0,0,1,23,18h2a1,1,0,0,1,.89,1.45Z"/><rect class="cls-3" y="33" width="48" height="4"/><rect class="cls-4" x="3" y="37" width="42" height="12"/><path class="cls-5" d="M25.85,18.47A1,1,0,0,0,25,18H23a1,1,0,0,0-.89,1.45L23,21.24V31a1,1,0,0,0,2,0V21.24l.89-1.79A1,1,0,0,0,25.85,18.47Z"/></g><g id="hourglass"><circle class="cls-6" cx="24" cy="43" r="4"/></g></g></svg>