<?xml version="1.0" standalone="no"?><svg xmlns="http://www.w3.org/2000/svg" viewBox="0 0 1440 320"><path fill="#4795ea" fill-opacity="1" d="M0,128L34.3,117.3C68.6,107,137,85,206,64C274.3,43,343,21,411,53.3C480,85,549,171,617,192C685.7,213,754,171,823,165.3C891.4,160,960,192,1029,218.7C1097.1,245,1166,267,1234,256C1302.9,245,1371,203,1406,181.3L1440,160L1440,320L1405.7,320C1371.4,320,1303,320,1234,320C1165.7,320,1097,320,1029,320C960,320,891,320,823,320C754.3,320,686,320,617,320C548.6,320,480,320,411,320C342.9,320,274,320,206,320C137.1,320,69,320,34,320L0,320Z"></path></svg>